# This file uses centimeters as units for non-parametric coordinates.

g default
v -0.500000 -0.500000 0.500000
v 0.500000 -0.500000 0.500000
v -0.500000 0.500000 0.500000
v 0.500000 0.500000 0.500000
v -0.500000 0.500000 -0.500000
v 0.500000 0.500000 -0.500000
v -0.500000 -0.500000 -0.500000
v 0.500000 -0.500000 -0.500000
v 0.007661 0.500000 -0.785338
v -0.029382 -0.500000 -0.785338
v 0.641815 0.015692 0.500000
v 0.641815 -0.016380 -0.500000
v -0.657190 0.000891 -0.500000
v -0.657190 -0.003512 0.500000
v -0.011026 -0.004460 -0.855366
vt 0.322670 0.367811
vt 0.001992 0.047134
vt 0.167363 0.001657
vt 0.322670 0.047134
vt 0.001992 0.367811
vt 0.161205 0.418218
vt 0.657035 0.001657
vt 0.977713 0.322334
vt 0.819831 0.413836
vt 0.657035 0.322334
vt 0.977713 0.001657
vt 0.329611 0.367811
vt 0.329611 0.205016
vt 0.491380 0.211008
vt 0.489664 0.418218
vt 0.495202 0.001657
vt 0.329611 0.047133
vt 0.650289 0.216894
vt 0.650289 0.367811
vt 0.650289 0.047133
vt 0.677330 0.830007
vt 0.998008 0.509329
vt 0.998008 0.830007
vt 0.677330 0.509329
vt 0.828247 0.417827
vt 0.515888 0.742888
vt 0.505603 0.422210
vt 0.671195 0.422210
vt 0.671195 0.742888
vt 0.350517 0.742888
vt 0.350517 0.422210
vt 0.023704 0.582834
vt 0.344382 0.581423
vt 0.344382 0.742888
vt 0.344382 0.422210
vt 0.023704 0.742888
vt 0.023704 0.422210
vn 0.000000 0.000000 1.000000
vn 0.000000 0.000000 1.000000
vn 0.000000 0.000000 1.000000
vn 0.000000 0.000000 1.000000
vn 0.000000 1.000000 0.000000
vn 0.000000 1.000000 0.000000
vn 0.000000 1.000000 0.000000
vn 0.000000 1.000000 0.000000
vn -0.479858 0.144480 -0.865368
vn 0.016221 0.149520 -0.988626
vn 0.000021 0.000546 -1.000000
vn -0.491365 0.010809 -0.870887
vn 0.000000 -1.000000 0.000000
vn 0.000000 -1.000000 0.000000
vn 0.000000 -1.000000 0.000000
vn 0.999985 0.005569 -0.000089
vn 0.999985 -0.005569 0.000089
vn 0.962092 0.272690 -0.004373
vn 0.962092 0.272690 -0.004373
vn -1.000000 0.000841 0.000003
vn -1.000000 -0.000841 -0.000004
vn -0.954336 0.298733 0.000912
vn 0.482286 -0.010730 -0.875948
vn 0.485781 0.118004 -0.866078
vn 0.961993 -0.273038 0.004378
vn 0.961993 -0.273038 0.004378
vn -0.953595 -0.301090 -0.000918
vn 0.000000 0.000000 1.000000
vn 0.000000 0.000000 1.000000
vn 0.000000 1.000000 0.000000
vn 0.000000 -1.000000 0.000000
vn 0.000000 -1.000000 0.000000
vn -0.017083 -0.153253 -0.988039
vn 0.470742 -0.139311 -0.871203
vn -0.493919 -0.129247 -0.859848
vn -0.953815 0.300395 0.000000
vn -0.954121 -0.299423 0.000000
s 1
g pCube1
f 3/1/1 2/2/2 11/3/3 4/4/4
s 2
f 3/7/5 6/8/6 9/9/7 5/10/8
s 3
f 5/12/9 9/13/10 15/14/11 13/15/12
s 4
f 1/21/13 8/22/14 2/23/15
s 5
f 11/26/16 12/27/17 6/28/18 4/29/19
s 6
f 13/32/20 14/33/21 3/34/22
s 3
f 12/16/23 15/14/11 9/13/10 6/17/24
s 5
f 2/30/25 8/31/26 12/27/17 11/26/16
s 6
f 13/32/20 1/35/27 14/33/21
s 1
f 1/5/28 2/2/2 3/1/1 14/6/29
s 2
f 3/7/5 4/11/30 6/8/6
s 4
f 7/24/31 10/25/32 8/22/14 1/21/13
s 3
f 10/18/33 15/14/11 12/16/23 8/20/34
f 13/15/12 15/14/11 10/18/33 7/19/35
s 6
f 13/32/20 3/34/22 5/36/36
f 7/37/37 1/35/27 13/32/20
