# This file uses centimeters as units for non-parametric coordinates.

g default
v -12.500000 12.500000 -12.500000
v 12.500000 12.500000 -12.500000
v -12.500000 -12.500000 -12.500000
v 12.500000 -12.500000 -12.500000
v -12.500000 -12.500000 12.500000
v 12.500000 -12.500000 12.500000
v -12.500000 12.500000 12.500000
v 12.500000 12.500000 12.500000
vt 0.749518 0.386207
vt 0.997582 0.386207
vt 0.997582 0.634271
vt 0.749518 0.634271
vt 0.501454 0.882335
vt 0.253389 0.882334
vt 0.253390 0.634270
vt 0.501454 0.634271
vt 0.005326 0.634270
vt 0.005326 0.386206
vt 0.253390 0.386206
vt 0.501454 0.386207
vt 0.501454 0.138142
vt 0.253390 0.138142
vn 0.000000 -0.000000 -1.000000
vn 0.000000 -0.000000 -1.000000
vn 0.000000 -0.000000 -1.000000
vn 0.000000 -0.000000 -1.000000
vn 0.000000 -1.000000 0.000000
vn 0.000000 -1.000000 0.000000
vn 0.000000 -1.000000 0.000000
vn 0.000000 -1.000000 0.000000
vn 0.000000 0.000000 1.000000
vn 0.000000 0.000000 1.000000
vn 0.000000 0.000000 1.000000
vn 0.000000 0.000000 1.000000
vn 0.000000 1.000000 -0.000000
vn 0.000000 1.000000 -0.000000
vn 0.000000 1.000000 -0.000000
vn 0.000000 1.000000 -0.000000
vn 1.000000 0.000000 0.000000
vn 1.000000 0.000000 0.000000
vn 1.000000 0.000000 0.000000
vn 1.000000 0.000000 0.000000
vn -1.000000 0.000000 0.000000
vn -1.000000 0.000000 0.000000
vn -1.000000 0.000000 0.000000
vn -1.000000 0.000000 0.000000
s off
g cube:pCube1
f 1/1/1 2/2/2 4/3/3 3/4/4
f 3/5/5 4/6/6 6/7/7 5/8/8
f 5/8/9 6/7/10 8/11/11 7/12/12
f 7/12/13 8/11/14 2/14/15 1/13/16
f 2/10/17 8/11/18 6/7/19 4/9/20
f 7/12/21 1/1/22 3/4/23 5/8/24
