# This file uses centimeters as units for non-parametric coordinates.

g default
v -4.515936 0.100000 2.106995
v -7.515937 3.100000 2.106995
v -5.254705 2.219249 2.106995
v -7.515937 3.100000 2.342770
v -5.254705 2.219249 2.342770
v -7.515937 0.100000 2.342770
v -4.515936 0.100000 2.342770
v -7.229581 3.100000 2.342770
v -7.211280 0.100000 2.342770
v -7.229581 3.100000 2.106995
v -6.162014 2.903457 2.342770
v -5.545162 0.100000 2.342770
v -6.162014 2.903457 2.106995
v -4.670152 1.149788 2.342770
v -5.787323 1.200568 2.342770
v -7.218154 1.226874 2.342770
v -7.515937 1.226895 2.342770
v -5.787323 1.200568 2.106995
v -4.670152 1.149788 2.106995
v -4.515936 0.354034 2.342770
v -5.600338 0.350762 2.342770
v -7.212846 0.356756 2.342770
v -7.515937 0.356761 2.342770
v -5.600338 0.350762 2.106995
v -4.515936 0.354034 2.106995
v -6.715344 1.217630 2.342770
v -6.734998 3.066450 2.342770
v -6.734998 3.066450 2.106995
v -6.715344 1.217630 2.106995
v -6.708385 0.100000 2.342770
v -6.709954 0.354887 2.342770
v -5.706901 2.672525 2.342770
v -5.706901 2.672525 2.106995
v -5.127827 1.170591 2.106995
v -4.974082 0.352652 2.106995
v -4.974084 0.100000 2.342770
v -4.974082 0.352652 2.342770
v -5.127827 1.170591 2.342770
v -4.927056 1.707641 2.342770
v -5.362634 1.779606 2.342770
v -5.927586 1.838032 2.342770
v -6.722282 1.870305 2.342770
v -7.222136 1.879574 2.342770
v -7.515937 1.879607 2.342770
v -7.222136 1.879574 2.106995
v -6.722282 1.870305 2.106995
v -5.927586 1.838032 2.106995
v -5.362634 1.779606 2.106995
v -4.927056 1.707641 2.106995
v -4.549674 0.721287 2.342770
v -5.043187 0.720299 2.342770
v -5.680726 0.716108 2.342770
v -6.712291 0.728965 2.342770
v -7.215128 0.730834 2.342770
v -7.515937 0.730846 2.342770
v -5.680726 0.716108 2.106995
v -5.043187 0.720299 2.106995
v -4.549674 0.721287 2.106995
v -6.015937 1.600000 2.106995
v -6.315936 1.900000 2.106995
v -6.015937 1.900000 2.106995
v -6.315936 1.900000 -1.893005
v -6.015937 1.900000 -1.893005
v -6.015937 1.600000 -1.893005
v -6.315936 2.200000 2.106995
v -6.315936 2.200000 -1.893005
v -6.615937 2.200000 -1.893005
v -6.615937 2.200000 2.106995
v -6.615937 2.500000 2.106995
v -6.615937 2.500000 -1.893005
v -6.915936 2.500000 -1.893005
v -6.915936 2.500000 2.106995
v -6.915936 2.800000 2.106995
v -6.915936 2.800000 -1.893005
v -7.215937 2.800000 -1.893005
v -7.215937 2.800000 2.106995
v -7.215937 3.100000 2.106995
v -7.215937 3.100000 -1.893005
v -7.515937 3.100000 -1.893005
v -7.515937 3.100000 2.106995
v -4.515936 0.100000 2.106995
v -4.815936 0.400000 2.106995
v -4.515936 0.400000 2.106995
v -4.815936 0.400000 -1.893005
v -4.515936 0.400000 -1.893005
v -4.515936 0.100000 -1.893005
v -4.815936 0.700000 2.106995
v -4.815936 0.700000 -1.893005
v -5.115936 0.700000 -1.893005
v -5.115936 0.700000 2.106995
v -5.115936 1.000000 2.106995
v -5.115936 1.000000 -1.893005
v -5.415936 1.000000 -1.893005
v -5.415936 1.000000 2.106995
v -5.415936 1.300000 2.106995
v -5.415936 1.300000 -1.893005
v -5.715936 1.300000 -1.893005
v -5.715936 1.300000 2.106995
v -5.715936 1.600000 2.106995
v -5.715936 1.600000 -1.893005
v -4.515936 0.100000 -1.893005
v -7.515937 3.100000 -1.893005
v -5.254705 2.219249 -1.893005
v -7.515937 3.100000 -2.128780
v -5.254705 2.219249 -2.128780
v -7.515937 0.100000 -2.128780
v -4.515936 0.100000 -2.128780
v -7.229581 3.100000 -2.128780
v -7.211280 0.100000 -2.128780
v -7.229581 3.100000 -1.893005
v -6.162014 2.903457 -2.128780
v -5.545162 0.100000 -2.128780
v -6.162014 2.903457 -1.893005
v -4.670152 1.149788 -2.128780
v -5.787323 1.200568 -2.128780
v -7.218154 1.226874 -2.128780
v -7.515937 1.226895 -2.128780
v -5.787323 1.200568 -1.893005
v -4.670152 1.149788 -1.893005
v -4.515936 0.354034 -2.128781
v -5.600338 0.350762 -2.128780
v -7.212846 0.356756 -2.128780
v -7.515937 0.356761 -2.128780
v -5.600338 0.350762 -1.893005
v -4.515936 0.354034 -1.893006
v -6.715344 1.217630 -2.128780
v -6.734998 3.066450 -2.128780
v -6.734998 3.066450 -1.893005
v -6.715344 1.217630 -1.893005
v -6.708385 0.100000 -2.128780
v -6.709954 0.354887 -2.128780
v -5.706901 2.672525 -2.128780
v -5.706901 2.672525 -1.893005
v -5.127827 1.170591 -1.893006
v -4.974082 0.352652 -1.893006
v -4.974084 0.100000 -2.128780
v -4.974082 0.352652 -2.128781
v -5.127827 1.170591 -2.128781
v -4.927056 1.707641 -2.128781
v -5.362634 1.779606 -2.128780
v -5.927586 1.838032 -2.128780
v -6.722282 1.870305 -2.128780
v -7.222136 1.879574 -2.128780
v -7.515937 1.879607 -2.128780
v -7.222136 1.879574 -1.893005
v -6.722282 1.870305 -1.893005
v -5.927586 1.838032 -1.893005
v -5.362634 1.779606 -1.893005
v -4.927056 1.707641 -1.893006
v -4.549674 0.721287 -2.128780
v -5.043187 0.720299 -2.128780
v -5.680726 0.716108 -2.128780
v -6.712291 0.728965 -2.128780
v -7.215128 0.730834 -2.128780
v -7.515937 0.730846 -2.128780
v -5.680726 0.716108 -1.893005
v -5.043187 0.720299 -1.893005
v -4.549674 0.721287 -1.893005
vt 0.871903 0.002018
vt 0.826735 0.001772
vt 0.826641 0.019301
vt 0.871806 0.019547
vt 0.556920 0.029532
vt 0.525816 0.020676
vt 0.525625 0.056533
vt 0.558322 0.062791
vt 0.950656 0.002465
vt 0.917564 0.002276
vt 0.917464 0.019804
vt 0.950556 0.019994
vt 0.666890 0.206412
vt 0.666980 0.225019
vt 0.700723 0.224854
vt 0.700631 0.206145
vt 0.539043 0.206872
vt 0.539250 0.225644
vt 0.624921 0.225225
vt 0.620767 0.206776
vt 0.479682 0.207025
vt 0.479774 0.225935
vt 0.502212 0.225825
vt 0.502004 0.206916
vt 0.996961 0.002732
vt 0.978075 0.002623
vt 0.977974 0.020151
vt 0.996860 0.020260
vt 0.638672 0.018353
vt 0.659960 0.018457
vt 0.660046 0.000929
vt 0.638757 0.000824
vt 0.479133 0.094868
vt 0.500771 0.094765
vt 0.499783 0.004883
vt 0.478693 0.004987
vt 0.537589 0.095267
vt 0.596129 0.097358
vt 0.578480 0.018974
vt 0.536221 0.007176
vt 0.683980 0.138348
vt 0.606625 0.121059
vt 0.608779 0.178808
vt 0.695685 0.180019
vt 0.637759 0.101457
vt 0.669865 0.106600
vt 0.645549 0.069039
vt 0.612082 0.035818
vt 0.634485 0.072261
vt 0.597391 0.048332
vt 0.602516 0.079997
vt 0.667310 0.105225
vt 0.779133 0.001523
vt 0.779042 0.019052
vt 0.661668 0.179360
vt 0.698014 0.179109
vt 0.688987 0.147594
vt 0.655272 0.146226
vt 0.538736 0.179323
vt 0.614715 0.179898
vt 0.606689 0.144256
vt 0.538335 0.143334
vt 0.479547 0.179474
vt 0.501701 0.179366
vt 0.501300 0.142834
vt 0.479368 0.142940
vt 0.696901 0.001110
vt 0.696814 0.018638
vt 0.741102 0.018859
vt 0.741190 0.001330
vt 0.609333 0.215128
vt 0.698004 0.215962
vt 0.525168 0.102854
vt 0.560342 0.110715
vt 0.561359 0.178147
vt 0.498930 0.051424
vt 0.498642 0.096925
vt 0.499140 0.018136
vt 0.194256 0.007380
vt 0.217228 0.007375
vt 0.194330 0.313675
vt 0.217303 0.313670
vt 0.240200 0.007369
vt 0.240275 0.313664
vt 0.171284 0.007386
vt 0.171358 0.313681
vt 0.148311 0.007391
vt 0.148386 0.313686
vt 0.125339 0.007397
vt 0.125414 0.313692
vt 0.102367 0.007403
vt 0.102442 0.313698
vt 0.079395 0.007408
vt 0.079470 0.313703
vt 0.056423 0.007414
vt 0.056498 0.313709
vt 0.033451 0.007419
vt 0.033526 0.313715
vt 0.010479 0.007425
vt 0.010553 0.313720
vt 0.423977 0.007324
vt 0.446949 0.007318
vt 0.424052 0.313619
vt 0.447024 0.313613
vt 0.469921 0.007313
vt 0.469996 0.313608
vt 0.401005 0.007330
vt 0.401080 0.313625
vt 0.378033 0.007335
vt 0.378107 0.313630
vt 0.355060 0.007341
vt 0.355135 0.313636
vt 0.332088 0.007347
vt 0.332163 0.313642
vt 0.309116 0.007352
vt 0.309191 0.313647
vt 0.286144 0.007358
vt 0.286219 0.313653
vt 0.263172 0.007363
vt 0.263247 0.313658
vt 0.871903 0.002018
vt 0.871806 0.019547
vt 0.826735 0.001772
vt 0.826641 0.019301
vt 0.558322 0.062791
vt 0.525625 0.056533
vt 0.556921 0.029532
vt 0.525816 0.020676
vt 0.950656 0.002465
vt 0.950556 0.019994
vt 0.917564 0.002276
vt 0.917464 0.019804
vt 0.700631 0.206145
vt 0.700723 0.224854
vt 0.666890 0.206412
vt 0.666981 0.225020
vt 0.539043 0.206872
vt 0.620767 0.206776
vt 0.539250 0.225644
vt 0.624921 0.225225
vt 0.479682 0.207025
vt 0.502004 0.206916
vt 0.479774 0.225935
vt 0.502212 0.225825
vt 0.996961 0.002732
vt 0.996860 0.020260
vt 0.978075 0.002623
vt 0.977974 0.020151
vt 0.638672 0.018353
vt 0.638757 0.000824
vt 0.659961 0.018457
vt 0.660046 0.000929
vt 0.478693 0.004987
vt 0.499783 0.004883
vt 0.479133 0.094868
vt 0.500771 0.094765
vt 0.536221 0.007176
vt 0.578480 0.018974
vt 0.537589 0.095267
vt 0.596129 0.097357
vt 0.695685 0.180019
vt 0.608779 0.178808
vt 0.683980 0.138348
vt 0.606625 0.121059
vt 0.612082 0.035818
vt 0.645549 0.069039
vt 0.637759 0.101457
vt 0.669865 0.106600
vt 0.667310 0.105225
vt 0.602515 0.079997
vt 0.634485 0.072261
vt 0.597391 0.048332
vt 0.779042 0.019052
vt 0.779133 0.001523
vt 0.655272 0.146226
vt 0.688987 0.147593
vt 0.661668 0.179360
vt 0.698014 0.179109
vt 0.538335 0.143334
vt 0.606689 0.144256
vt 0.538736 0.179323
vt 0.614715 0.179898
vt 0.479368 0.142940
vt 0.501300 0.142834
vt 0.479547 0.179474
vt 0.501702 0.179366
vt 0.696901 0.001110
vt 0.741190 0.001330
vt 0.696814 0.018638
vt 0.741102 0.018859
vt 0.609333 0.215128
vt 0.698004 0.215962
vt 0.525168 0.102854
vt 0.560342 0.110715
vt 0.561359 0.178147
vt 0.498930 0.051424
vt 0.498642 0.096925
vt 0.499140 0.018136
vn 0.877478 0.479617 0.000000
vn 0.842106 0.539312 0.000000
vn 0.877478 0.479618 0.000000
vn 0.842106 0.539312 0.000000
vn -0.000000 0.000000 -1.000000
vn 0.000000 0.000000 -1.000000
vn 0.000000 0.000000 -1.000000
vn 0.000000 0.000000 -1.000000
vn 0.981734 0.190258 0.000000
vn 0.933974 0.357341 0.000000
vn 0.981734 0.190258 0.000000
vn 0.933974 0.357342 0.000000
vn 0.000000 0.000000 1.000000
vn 0.000000 0.000000 1.000000
vn 0.000000 0.000000 1.000000
vn 0.000000 0.000000 1.000000
vn -0.000000 0.000000 1.000000
vn -0.000000 0.000000 1.000000
vn -0.000000 0.000000 1.000000
vn 0.000000 0.000000 1.000000
vn -0.000000 0.000000 1.000000
vn -0.000000 0.000000 1.000000
vn 0.000000 0.000000 1.000000
vn 0.000000 0.000000 1.000000
vn 1.000000 0.000000 0.000000
vn 0.998529 0.054225 0.000000
vn 1.000000 0.000002 0.000000
vn 0.998529 0.054225 0.000000
vn 0.000002 1.000000 0.000000
vn 0.042922 0.999078 0.000000
vn 0.000002 1.000000 0.000000
vn 0.042922 0.999078 0.000000
vn -0.000000 0.000000 1.000000
vn -0.000000 0.000000 1.000000
vn -0.000000 0.000000 1.000000
vn 0.000000 0.000000 1.000000
vn -0.000000 0.000000 1.000000
vn 0.000000 0.000000 1.000000
vn -0.000000 0.000000 1.000000
vn -0.000000 0.000000 1.000000
vn 0.000000 0.000000 -1.000000
vn -0.000000 0.000000 -1.000000
vn 0.000000 0.000000 -1.000000
vn -0.000000 0.000000 -1.000000
vn -0.000000 0.000000 1.000000
vn -0.000000 0.000000 1.000000
vn -0.000000 0.000000 1.000000
vn -0.000000 0.000000 1.000000
vn -0.000000 0.000000 -1.000000
vn -0.000000 0.000000 -1.000000
vn -0.000000 0.000000 -1.000000
vn -0.000000 0.000000 -1.000000
vn 0.707950 0.706262 0.000000
vn 0.707950 0.706262 0.000000
vn 0.602097 0.798423 0.000000
vn 0.602097 0.798423 0.000000
vn 0.000000 0.000000 1.000000
vn 0.000000 0.000000 1.000000
vn -0.000000 0.000000 1.000000
vn -0.000000 0.000000 1.000000
vn -0.000000 0.000000 1.000000
vn -0.000000 0.000000 1.000000
vn -0.000000 0.000000 1.000000
vn -0.000000 0.000000 1.000000
vn 0.000000 0.000000 1.000000
vn 0.000001 0.000000 1.000000
vn 0.000000 0.000000 1.000000
vn 0.000001 0.000000 1.000000
vn 0.181061 0.983472 0.000000
vn 0.181061 0.983472 0.000000
vn 0.357794 0.933800 0.000000
vn 0.357794 0.933801 0.000000
vn -0.000001 0.000000 -1.000000
vn 0.000000 0.000000 -1.000000
vn -0.000000 0.000000 -1.000000
vn 0.000000 0.000000 -1.000000
vn 0.000000 0.000000 -1.000000
vn -0.000000 0.000000 -1.000000
vn -0.000000 0.000000 -1.000000
vn -0.000001 0.000000 -1.000000
vn 0.000000 1.000000 0.000000
vn 0.000000 1.000000 0.000000
vn 0.000000 1.000000 0.000000
vn 0.000000 1.000000 0.000000
vn 1.000000 0.000000 0.000000
vn 1.000000 0.000000 0.000000
vn 1.000000 0.000000 0.000000
vn 1.000000 0.000000 0.000000
vn 0.000000 1.000000 0.000000
vn 0.000000 1.000000 0.000000
vn 0.000000 1.000000 0.000000
vn 0.000000 1.000000 0.000000
vn 1.000000 0.000000 0.000000
vn 1.000000 0.000000 0.000000
vn 1.000000 0.000000 0.000000
vn 1.000000 0.000000 0.000000
vn 0.000000 1.000000 0.000000
vn 0.000000 1.000000 0.000000
vn 0.000000 1.000000 0.000000
vn 0.000000 1.000000 0.000000
vn 1.000000 0.000000 0.000000
vn 1.000000 0.000000 0.000000
vn 1.000000 0.000000 0.000000
vn 1.000000 0.000000 0.000000
vn 0.000000 1.000000 0.000000
vn 0.000000 1.000000 0.000000
vn 0.000000 1.000000 0.000000
vn 0.000000 1.000000 0.000000
vn 1.000000 0.000000 0.000000
vn 1.000000 0.000000 0.000000
vn 1.000000 0.000000 0.000000
vn 1.000000 0.000000 0.000000
vn 0.000000 1.000000 0.000000
vn 0.000000 1.000000 0.000000
vn 0.000000 1.000000 0.000000
vn 0.000000 1.000000 0.000000
vn 1.000000 0.000000 0.000000
vn 1.000000 0.000000 0.000000
vn 1.000000 0.000000 0.000000
vn 1.000000 0.000000 0.000000
vn 0.000000 1.000000 0.000000
vn 0.000000 1.000000 0.000000
vn 0.000000 1.000000 0.000000
vn 0.000000 1.000000 0.000000
vn 1.000000 0.000000 0.000000
vn 1.000000 0.000000 0.000000
vn 1.000000 0.000000 0.000000
vn 1.000000 0.000000 0.000000
vn 0.000000 1.000000 0.000000
vn 0.000000 1.000000 0.000000
vn 0.000000 1.000000 0.000000
vn 0.000000 1.000000 0.000000
vn 1.000000 0.000000 0.000000
vn 1.000000 0.000000 0.000000
vn 1.000000 0.000000 0.000000
vn 1.000000 0.000000 0.000000
vn 0.000000 1.000000 0.000000
vn 0.000000 1.000000 0.000000
vn 0.000000 1.000000 0.000000
vn 0.000000 1.000000 0.000000
vn 1.000000 0.000000 0.000000
vn 1.000000 0.000000 0.000000
vn 1.000000 0.000000 0.000000
vn 1.000000 0.000000 0.000000
vn 0.000000 1.000000 0.000000
vn 0.000000 1.000000 0.000000
vn 0.000000 1.000000 0.000000
vn 0.000000 1.000000 0.000000
vn 1.000000 0.000000 0.000000
vn 1.000000 0.000000 0.000000
vn 1.000000 0.000000 0.000000
vn 1.000000 0.000000 0.000000
vn 0.000000 1.000000 0.000000
vn 0.000000 1.000000 0.000000
vn 0.000000 1.000000 0.000000
vn 0.000000 1.000000 0.000000
vn 1.000000 0.000000 0.000000
vn 1.000000 0.000000 0.000000
vn 1.000000 0.000000 0.000000
vn 1.000000 0.000000 0.000000
vn 0.877478 0.479618 0.000000
vn 0.877478 0.479618 0.000000
vn 0.842107 0.539311 0.000000
vn 0.842107 0.539311 0.000000
vn -0.000000 0.000000 1.000000
vn -0.000000 -0.000000 1.000000
vn -0.000001 0.000000 1.000000
vn 0.000000 -0.000001 1.000000
vn 0.981734 0.190257 0.000000
vn 0.981734 0.190257 0.000000
vn 0.933974 0.357341 0.000000
vn 0.933974 0.357341 0.000000
vn 0.000000 -0.000000 -1.000000
vn 0.000000 -0.000002 -1.000000
vn -0.000000 0.000000 -1.000000
vn 0.000000 -0.000002 -1.000000
vn -0.000000 0.000000 -1.000000
vn -0.000000 0.000000 -1.000000
vn -0.000000 0.000000 -1.000000
vn -0.000000 -0.000000 -1.000000
vn 0.000000 0.000000 -1.000000
vn -0.000000 0.000000 -1.000000
vn 0.000000 0.000000 -1.000000
vn 0.000000 0.000000 -1.000000
vn 1.000000 0.000000 0.000000
vn 1.000000 0.000002 0.000000
vn 0.998529 0.054224 0.000000
vn 0.998529 0.054225 0.000000
vn 0.000002 1.000000 0.000000
vn 0.000002 1.000000 0.000000
vn 0.042922 0.999079 0.000000
vn 0.042922 0.999078 0.000000
vn 0.000000 0.000000 -1.000000
vn -0.000000 0.000000 -1.000000
vn -0.000001 0.000000 -1.000000
vn -0.000000 0.000000 -1.000000
vn -0.000000 0.000000 -1.000000
vn -0.000000 0.000000 -1.000000
vn 0.000000 0.000000 -1.000000
vn 0.000000 -0.000000 -1.000000
vn -0.000000 0.000000 1.000000
vn -0.000000 0.000000 1.000000
vn 0.000000 0.000000 1.000000
vn -0.000000 0.000000 1.000000
vn 0.000000 -0.000000 -1.000000
vn -0.000001 -0.000001 -1.000000
vn -0.000000 0.000000 -1.000000
vn -0.000001 0.000000 -1.000000
vn -0.000000 0.000000 1.000000
vn 0.000000 -0.000000 1.000000
vn 0.000002 0.000001 1.000000
vn 0.000001 -0.000000 1.000000
vn 0.707951 0.706262 0.000000
vn 0.602097 0.798423 0.000000
vn 0.707951 0.706262 0.000000
vn 0.602096 0.798424 0.000000
vn 0.000000 -0.000000 -1.000000
vn 0.000001 -0.000000 -1.000000
vn 0.000000 0.000000 -1.000000
vn -0.000000 0.000001 -1.000000
vn 0.000000 0.000000 -1.000000
vn -0.000000 0.000000 -1.000000
vn 0.000000 0.000000 -1.000000
vn -0.000000 -0.000000 -1.000000
vn -0.000001 0.000000 -1.000000
vn -0.000000 0.000000 -1.000000
vn 0.000001 0.000000 -1.000000
vn 0.000000 0.000000 -1.000000
vn 0.181061 0.983472 0.000000
vn 0.357794 0.933801 0.000000
vn 0.181061 0.983472 0.000000
vn 0.357794 0.933801 0.000000
vn -0.000000 0.000000 1.000000
vn 0.000000 0.000000 1.000000
vn 0.000000 0.000000 1.000000
vn 0.000000 -0.000000 1.000000
vn -0.000000 0.000000 1.000000
vn 0.000001 -0.000001 1.000000
vn -0.000000 -0.000000 1.000000
vn 0.000000 -0.000001 1.000000
s 1
g polySurface3
f 49/1/1 3/2/2 39/4/3
f 39/4/3 3/2/2 5/3/4
s 2
f 58/6/5 57/7/6 19/5/7
f 19/5/7 57/7/6 34/8/8
s 1
f 58/9/9 19/10/10 50/12/11
f 50/12/11 19/10/10 14/11/12
s 4
f 36/14/13 7/15/14 37/13/15
f 37/13/15 7/15/14 20/16/16
f 31/17/17 30/18/18 21/20/19
f 21/20/19 30/18/18 12/19/20
f 23/21/21 6/22/22 22/24/23
f 22/24/23 6/22/22 9/23/24
s 1
f 1/25/25 25/26/26 7/28/27
f 7/28/27 25/26/26 20/27/28
s 8
f 4/29/29 8/30/30 2/32/31
f 2/32/31 8/30/30 10/31/32
s 4
f 43/34/33 8/35/34 44/33/35
f 44/33/35 8/35/34 4/36/36
f 41/38/37 11/39/38 42/37/39
f 42/37/39 11/39/38 27/40/40
s 2
f 47/42/41 46/43/42 13/41/43
f 13/41/43 46/43/42 28/44/44
s 4
f 39/46/45 5/47/46 40/45/47
f 40/45/47 5/47/46 32/48/48
s 2
f 49/50/49 48/51/50 3/49/51
f 3/49/51 48/51/50 33/52/52
s 8
f 5/3/53 3/2/54 32/54/55
f 32/54/55 3/2/54 33/53/56
s 4
f 50/56/57 14/57/58 51/55/59
f 51/55/59 14/57/58 38/58/60
f 52/60/61 15/61/62 53/59/63
f 53/59/63 15/61/62 26/62/64
f 54/64/65 16/65/66 55/63/67
f 55/63/67 16/65/66 17/66/68
s 8
f 28/67/69 27/68/70 13/70/71
f 13/70/71 27/68/70 11/69/72
s 4
f 42/37/39 27/40/40 43/34/33
f 43/34/33 27/40/40 8/35/34
s 8
f 10/31/32 8/30/30 28/67/69
f 28/67/69 8/30/30 27/68/70
s 2
f 46/43/42 45/71/73 28/44/44
f 28/44/44 45/71/73 10/72/74
s 4
f 22/24/23 9/23/24 31/17/17
f 31/17/17 9/23/24 30/18/18
f 53/59/63 26/62/64 54/64/65
f 54/64/65 26/62/64 16/65/66
s 8
f 32/54/55 33/53/56 11/69/72
f 11/69/72 33/53/56 13/70/71
s 2
f 48/51/50 47/42/41 33/52/52
f 33/52/52 47/42/41 13/41/43
f 57/7/6 56/73/75 34/8/8
f 34/8/8 56/73/75 18/74/76
s 4
f 21/20/19 12/19/20 37/13/15
f 37/13/15 12/19/20 36/14/13
f 51/55/59 38/58/60 52/60/61
f 52/60/61 38/58/60 15/61/62
f 40/45/47 32/48/48 41/38/37
f 41/38/37 32/48/48 11/39/38
f 14/57/58 39/46/45 38/58/60
f 38/58/60 39/46/45 40/45/47
f 38/58/60 40/45/47 15/61/62
f 15/61/62 40/45/47 41/38/37
f 15/61/62 41/38/37 26/62/64
f 26/62/64 41/38/37 42/37/39
f 26/62/64 42/37/39 16/65/66
f 16/65/66 42/37/39 43/34/33
f 16/65/66 43/34/33 17/66/68
f 17/66/68 43/34/33 44/33/35
s 2
f 18/74/76 29/75/77 47/42/41
f 47/42/41 29/75/77 46/43/42
f 34/8/8 18/74/76 48/51/50
f 48/51/50 18/74/76 47/42/41
f 19/5/7 34/8/8 49/50/49
f 49/50/49 34/8/8 48/51/50
s 1
f 19/10/10 49/1/1 14/11/12
f 14/11/12 49/1/1 39/4/3
s 4
f 20/16/16 50/56/57 37/13/15
f 37/13/15 50/56/57 51/55/59
f 37/13/15 51/55/59 21/20/19
f 21/20/19 51/55/59 52/60/61
f 21/20/19 52/60/61 31/17/17
f 31/17/17 52/60/61 53/59/63
f 31/17/17 53/59/63 22/24/23
f 22/24/23 53/59/63 54/64/65
f 22/24/23 54/64/65 23/21/21
f 23/21/21 54/64/65 55/63/67
s 2
f 35/76/78 24/77/79 57/7/6
f 57/7/6 24/77/79 56/73/75
f 25/78/80 35/76/78 58/6/5
f 58/6/5 35/76/78 57/7/6
s 1
f 25/26/26 58/9/9 20/27/28
f 20/27/28 58/9/9 50/12/11
s 19
f 60/79/81 61/80/82 62/81/83
f 62/81/83 61/80/82 63/82/84
s 20
f 59/83/85 64/84/86 61/80/87
f 61/80/87 64/84/86 63/82/88
s 21
f 65/85/89 66/86/90 68/87/91
f 68/87/91 66/86/90 67/88/92
s 22
f 60/79/93 62/81/94 65/85/95
f 65/85/95 62/81/94 66/86/96
s 23
f 69/89/97 70/90/98 72/91/99
f 72/91/99 70/90/98 71/92/100
s 24
f 68/87/101 67/88/102 69/89/103
f 69/89/103 67/88/102 70/90/104
s 25
f 73/93/105 74/94/106 76/95/107
f 76/95/107 74/94/106 75/96/108
s 26
f 72/91/109 71/92/110 73/93/111
f 73/93/111 71/92/110 74/94/112
s 27
f 77/97/113 78/98/114 80/99/115
f 80/99/115 78/98/114 79/100/116
s 28
f 76/95/117 75/96/118 77/97/119
f 77/97/119 75/96/118 78/98/120
s 29
f 82/101/121 83/102/122 84/103/123
f 84/103/123 83/102/122 85/104/124
s 30
f 81/105/125 86/106/126 83/102/127
f 83/102/127 86/106/126 85/104/128
s 31
f 87/107/129 88/108/130 90/109/131
f 90/109/131 88/108/130 89/110/132
s 32
f 82/101/133 84/103/134 87/107/135
f 87/107/135 84/103/134 88/108/136
s 33
f 91/111/137 92/112/138 94/113/139
f 94/113/139 92/112/138 93/114/140
s 34
f 90/109/141 89/110/142 91/111/143
f 91/111/143 89/110/142 92/112/144
s 35
f 95/115/145 96/116/146 98/117/147
f 98/117/147 96/116/146 97/118/148
s 36
f 94/113/149 93/114/150 95/115/151
f 95/115/151 93/114/150 96/116/152
s 37
f 99/119/153 100/120/154 59/83/155
f 59/83/155 100/120/154 64/84/156
s 38
f 98/117/157 97/118/158 99/119/159
f 99/119/159 97/118/158 100/120/160
s 39
f 149/121/161 139/122/162 103/123/163
f 103/123/163 139/122/162 105/124/164
s 40
f 134/125/165 157/126/166 119/127/167
f 119/127/167 157/126/166 158/128/168
s 39
f 158/129/169 150/130/170 119/131/171
f 119/131/171 150/130/170 114/132/172
s 42
f 120/133/173 107/134/174 137/135/175
f 137/135/175 107/134/174 136/136/176
f 131/137/177 121/138/178 130/139/179
f 130/139/179 121/138/178 112/140/180
f 123/141/181 122/142/182 106/143/183
f 106/143/183 122/142/182 109/144/184
s 39
f 101/145/185 107/146/186 125/147/187
f 125/147/187 107/146/186 120/148/188
s 46
f 104/149/189 102/150/190 108/151/191
f 108/151/191 102/150/190 110/152/192
s 42
f 104/153/193 108/154/194 144/155/195
f 144/155/195 108/154/194 143/156/196
f 127/157/197 111/158/198 142/159/199
f 142/159/199 111/158/198 141/160/200
s 40
f 128/161/201 146/162/202 113/163/203
f 113/163/203 146/162/202 147/164/204
s 42
f 132/165/205 105/166/206 140/167/207
f 140/167/207 105/166/206 139/168/208
s 40
f 133/169/209 148/170/210 103/171/211
f 103/171/211 148/170/210 149/172/212
s 46
f 105/124/213 132/173/214 103/123/215
f 103/123/215 132/173/214 133/174/216
s 42
f 138/175/217 114/176/218 151/177/219
f 151/177/219 114/176/218 150/178/220
f 126/179/221 115/180/222 153/181/223
f 153/181/223 115/180/222 152/182/224
f 117/183/225 116/184/226 155/185/227
f 155/185/227 116/184/226 154/186/228
s 46
f 128/187/229 113/188/230 127/189/231
f 127/189/231 113/188/230 111/190/232
s 42
f 108/154/194 127/157/197 143/156/196
f 143/156/196 127/157/197 142/159/199
s 46
f 110/152/192 128/187/229 108/151/191
f 108/151/191 128/187/229 127/189/231
s 40
f 146/162/202 128/161/201 145/191/233
f 145/191/233 128/161/201 110/192/234
s 42
f 122/142/182 131/137/177 109/144/184
f 109/144/184 131/137/177 130/139/179
f 116/184/226 126/179/221 154/186/228
f 154/186/228 126/179/221 153/181/223
s 46
f 132/173/214 111/190/232 133/174/216
f 133/174/216 111/190/232 113/188/230
s 40
f 148/170/210 133/169/209 147/164/204
f 147/164/204 133/169/209 113/163/203
f 157/126/166 134/125/165 156/193/235
f 156/193/235 134/125/165 118/194/236
s 42
f 121/138/178 137/135/175 112/140/180
f 112/140/180 137/135/175 136/136/176
f 115/180/222 138/175/217 152/182/224
f 152/182/224 138/175/217 151/177/219
f 111/158/198 132/165/205 141/160/200
f 141/160/200 132/165/205 140/167/207
f 140/167/207 139/168/208 138/175/217
f 138/175/217 139/168/208 114/176/218
f 141/160/200 140/167/207 115/180/222
f 115/180/222 140/167/207 138/175/217
f 142/159/199 141/160/200 126/179/221
f 126/179/221 141/160/200 115/180/222
f 143/156/196 142/159/199 116/184/226
f 116/184/226 142/159/199 126/179/221
f 144/155/195 143/156/196 117/183/225
f 117/183/225 143/156/196 116/184/226
s 40
f 146/162/202 129/195/237 147/164/204
f 147/164/204 129/195/237 118/194/236
f 134/125/165 148/170/210 118/194/236
f 118/194/236 148/170/210 147/164/204
f 148/170/210 134/125/165 149/172/212
f 149/172/212 134/125/165 119/127/167
s 39
f 119/131/171 114/132/172 149/121/161
f 149/121/161 114/132/172 139/122/162
s 42
f 151/177/219 150/178/220 137/135/175
f 137/135/175 150/178/220 120/133/173
f 152/182/224 151/177/219 121/138/178
f 121/138/178 151/177/219 137/135/175
f 153/181/223 152/182/224 131/137/177
f 131/137/177 152/182/224 121/138/178
f 154/186/228 153/181/223 122/142/182
f 122/142/182 153/181/223 131/137/177
f 155/185/227 154/186/228 123/141/181
f 123/141/181 154/186/228 122/142/182
s 40
f 135/196/238 157/126/166 124/197/239
f 124/197/239 157/126/166 156/193/235
f 157/126/166 135/196/238 158/128/168
f 158/128/168 135/196/238 125/198/240
s 39
f 125/147/187 120/148/188 158/129/169
f 158/129/169 120/148/188 150/130/170
